<?xml version="1.0" encoding="UTF-8"?>
<svg version="1.1" xmlns="http://www.w3.org/2000/svg" width="200" height="200">
<path d="M0 0 C26 0 26 0 34 3 C38.16101884 7.26771163 39.38929659 10.9452716 39.3671875 16.92578125 C38.72266224 20.56666332 36.56542474 22.43457526 34 25 C34.804375 25.61875 35.60875 26.2375 36.4375 26.875 C39.30374622 29.25188711 39.87412151 29.94995031 40.30859375 33.57421875 C40.69957806 43.01708225 40.69957806 43.01708225 37.3125 47.125 C34.00333115 50.56243121 30.51448054 51.89353187 25.77026367 52.22705078 C23.98712769 52.21134033 23.98712769 52.21134033 22.16796875 52.1953125 C21.00289795 52.19031738 19.83782715 52.18532227 18.63745117 52.18017578 C16.43472534 52.15286377 16.43472534 52.15286377 14.1875 52.125 C9.505625 52.08375 4.82375 52.0425 0 52 C0 34.84 0 17.68 0 0 Z M13 12 C12.92794489 13.68608966 12.91613932 15.37500659 12.9375 17.0625 C12.94652344 17.98160156 12.95554687 18.90070313 12.96484375 19.84765625 C12.97644531 20.55792969 12.98804687 21.26820312 13 22 C14.62580966 21.88601335 16.25067157 21.75844341 17.875 21.625 C18.77992187 21.55539063 19.68484375 21.48578125 20.6171875 21.4140625 C23.17941903 21.20431868 23.17941903 21.20431868 25 19 C25.50014953 16.54258463 25.50014953 16.54258463 25 14 C23.50098982 12.01990794 23.50098982 12.01990794 21 11 C16.69333075 10.37736372 16.69333075 10.37736372 13 12 Z M14 29 C12.74826221 30.03033389 12.74826221 30.03033389 12.8671875 32.25 C12.86976562 33.1575 12.87234375 34.065 12.875 35 C12.87242188 35.9075 12.86984375 36.815 12.8671875 37.75 C12.74826221 39.96966611 12.74826221 39.96966611 14 41 C17.72426441 41.28648188 20.43247163 41.21735129 23.9375 39.875 C26.31581277 38.11306632 26.31581277 38.11306632 26.4375 34.9375 C26.28056299 31.88374462 26.28056299 31.88374462 24 30 C21.60307309 29.5002486 21.60307309 29.5002486 18.9375 29.3125 C18.03902344 29.22613281 17.14054687 29.13976562 16.21484375 29.05078125 C15.48394531 29.03402344 14.75304687 29.01726562 14 29 Z " fill="#1D5F9B" transform="translate(72,50)"/>
<path d="M0 0 C0.84908432 -0.00428513 1.69816864 -0.00857025 2.57298279 -0.01298523 C4.36236684 -0.01871223 6.15177417 -0.01924083 7.94116211 -0.01489258 C10.67797392 -0.01172525 13.41371173 -0.03523683 16.15039062 -0.06054688 C17.89192572 -0.06281931 19.63346372 -0.06352362 21.375 -0.0625 C22.60012047 -0.07631462 22.60012047 -0.07631462 23.84999084 -0.09040833 C27.1339478 -0.06364758 29.65516312 0.06206907 32.60522461 1.57348633 C36.04341743 5.49122094 35.28173983 10.46253705 35.2890625 15.42578125 C35.2940551 16.60164795 35.2940551 16.60164795 35.29914856 17.80126953 C35.30420142 19.45539769 35.30655739 21.109536 35.30639648 22.76367188 C35.308586 25.29183713 35.32676706 27.81956795 35.34570312 30.34765625 C35.3486368 31.95702976 35.35062177 33.56640534 35.3515625 35.17578125 C35.35874802 35.93004395 35.36593353 36.68430664 35.37333679 37.46142578 C35.35709026 41.19765034 35.34027835 44.19421552 33.12109375 47.30078125 C30.8328545 48.44490088 29.53767678 48.4331258 26.99438477 48.44604492 C26.14332657 48.45242477 25.29226837 48.45880463 24.41542053 48.46537781 C23.03416237 48.46704704 23.03416237 48.46704704 21.625 48.46875 C20.68051498 48.4720784 19.73602997 48.4754068 18.76292419 48.47883606 C16.763097 48.48390419 14.76326134 48.48624442 12.76342773 48.48608398 C9.69956567 48.48826986 6.63606391 48.50642508 3.57226562 48.52539062 C1.63151165 48.52832465 -0.30924404 48.53030939 -2.25 48.53125 C-3.16881454 48.53843552 -4.08762909 48.54562103 -5.0342865 48.55302429 C-5.88849686 48.54994766 -6.74270721 48.54687103 -7.62280273 48.54370117 C-8.37399887 48.54512619 -9.12519501 48.54655121 -9.89915466 48.54801941 C-11.87890625 48.30078125 -11.87890625 48.30078125 -14.87890625 46.30078125 C-15.3840332 44.33984375 -15.3840332 44.33984375 -15.5546875 41.92578125 C-15.61865723 41.02859375 -15.68262695 40.13140625 -15.74853516 39.20703125 C-15.97153577 34.23587145 -16.0632489 29.27676011 -16.06640625 24.30078125 C-16.07865234 23.285 -16.09089844 22.26921875 -16.10351562 21.22265625 C-16.13066586 7.10453508 -16.13066586 7.10453508 -13.87890625 2.30078125 C-9.61150826 -0.34140649 -4.86031757 -0.0054371 0 0 Z M-2.87890625 11.30078125 C-7.21265216 17.27836181 -7.57380737 23.12666127 -6.87890625 30.30078125 C-5.61170896 34.73959234 -4.19953004 37.42438555 -0.3125 40.00390625 C4.07812358 41.66225327 7.78931181 41.6699609 12.43359375 41.55078125 C13.25666016 41.545625 14.07972656 41.54046875 14.92773438 41.53515625 C18.83905398 41.8525153 18.83905398 41.8525153 22.12109375 40.30078125 C22.16202312 37.96780692 22.16351098 35.633729 22.12109375 33.30078125 C21.07308594 33.31238281 20.02507813 33.32398437 18.9453125 33.3359375 C17.56640803 33.3453178 16.18750164 33.35441775 14.80859375 33.36328125 C14.11830078 33.37166016 13.42800781 33.38003906 12.71679688 33.38867188 C9.57279125 33.40386031 7.12689356 33.30271452 4.12109375 32.30078125 C4.12109375 31.64078125 4.12109375 30.98078125 4.12109375 30.30078125 C5.18070313 30.09582031 6.2403125 29.89085938 7.33203125 29.6796875 C8.72008197 29.40770459 10.10810119 29.13556081 11.49609375 28.86328125 C12.19476563 28.72857422 12.8934375 28.59386719 13.61328125 28.45507812 C17.47738109 27.72353905 17.47738109 27.72353905 21.12109375 26.30078125 C21.12109375 25.64078125 21.12109375 24.98078125 21.12109375 24.30078125 C21.78109375 24.30078125 22.44109375 24.30078125 23.12109375 24.30078125 C24.72318235 21.09660404 24.6139459 17.77738693 24.12109375 14.30078125 C21.99661105 10.85765411 20.97256734 9.58460578 17.12109375 8.30078125 C14.85345801 8.15430043 12.58077009 8.07981865 10.30859375 8.05078125 C9.10589844 8.025 7.90320313 7.99921875 6.6640625 7.97265625 C2.78141453 8.33223996 0.42497811 9.26613106 -2.87890625 11.30078125 Z " fill="#2365A1" transform="translate(30.87890625,53.69921875)"/>
<path d="M0 0 C3.78048304 -0.49221479 7.23657437 -0.68609368 11 0 C13.93489468 2.28380883 15.97208812 4.89930197 18 8 C18.598125 7.236875 19.19625 6.47375 19.8125 5.6875 C20.534375 4.800625 21.25625 3.91375 22 3 C22.6496875 2.18015625 22.6496875 2.18015625 23.3125 1.34375 C25.6521405 -0.51929706 27.24022944 -0.30232872 30.1875 -0.1875 C31.08855469 -0.16042969 31.98960937 -0.13335937 32.91796875 -0.10546875 C33.94857422 -0.05326172 33.94857422 -0.05326172 35 0 C35.495 2.475 35.495 2.475 36 5 C35.34 5 34.68 5 34 5 C33.73445313 5.56203125 33.46890625 6.1240625 33.1953125 6.703125 C31.90668966 9.17930222 30.43869639 11.43844882 28.875 13.75 C28.33617187 14.54921875 27.79734375 15.3484375 27.2421875 16.171875 C26.83226562 16.77515625 26.42234375 17.3784375 26 18 C26.62648437 18.88042969 27.25296875 19.76085937 27.8984375 20.66796875 C28.72422302 21.84095954 29.54972912 23.01414707 30.375 24.1875 C30.7875 24.76564453 31.2 25.34378906 31.625 25.93945312 C33.89716155 29.18278051 35.71431953 32.24892127 37 36 C33.87187656 38.2157541 30.86605375 38.4268435 27.10546875 37.890625 C22.80264223 36.07050543 20.46155656 31.80772031 18 28 C17.62230469 28.6496875 17.24460938 29.299375 16.85546875 29.96875 C15.06633844 32.68387046 13.45226673 34.85322043 11 37 C7.21571554 37.77613341 3.80609522 37.55749315 0 37 C0.5408139 31.53063678 3.73063806 27.96250364 7.02539062 23.81640625 C8.45398253 21.97678317 8.45398253 21.97678317 10 19 C9.06192408 13.85996418 5.009481 10.2476035 1.6796875 6.40234375 C0 4 0 4 0 0 Z " fill="#3E6E98" transform="translate(144,65)"/>
<path d="M0 0 C1.67542976 0.28604898 3.34385343 0.61781233 5 1 C4.7834375 1.9590625 4.7834375 1.9590625 4.5625 2.9375 C2.7613897 12.74354494 0.99921822 23.26182701 5.63671875 32.44140625 C7.99259571 35.13480139 11.00040212 35.90904745 14.49536133 36.22705078 C15.3489624 36.21657715 16.20256348 36.20610352 17.08203125 36.1953125 C18.01337891 36.18886719 18.94472656 36.18242188 19.90429688 36.17578125 C20.86400391 36.15902344 21.82371094 36.14226562 22.8125 36.125 C24.28106445 36.11146484 24.28106445 36.11146484 25.77929688 36.09765625 C28.18645061 36.07417182 30.59309743 36.0413284 33 36 C33 33.36 33 30.72 33 28 C33.495 28.99 33.495 28.99 34 30 C34.99 30 35.98 30 37 30 C37.495 28.515 37.495 28.515 38 27 C38.66 27 39.32 27 40 27 C40.33 18.09 40.66 9.18 41 0 C41.33 0 41.66 0 42 0 C42.07410727 5.64165361 42.12858167 11.28302447 42.16479492 16.92504883 C42.1798898 18.84469538 42.20036773 20.7643074 42.22631836 22.68383789 C42.26267109 25.44165564 42.27971912 28.1990178 42.29296875 30.95703125 C42.30845261 31.81649857 42.32393646 32.67596588 42.33988953 33.56147766 C42.34011612 34.36208115 42.34034271 35.16268463 42.34057617 35.98754883 C42.34723801 36.6914827 42.35389984 37.39541656 42.36076355 38.12068176 C41.87778391 40.63665782 41.05621715 41.49943149 39 43 C37.04475403 43.36076355 37.04475403 43.36076355 34.80395508 43.34057617 C33.96331009 43.34034958 33.1226651 43.34012299 32.25654602 43.33988953 C31.35333115 43.32440567 30.45011627 43.30892181 29.51953125 43.29296875 C28.59154221 43.28872391 27.66355316 43.28447906 26.70744324 43.28010559 C23.74216757 43.26330662 20.7775704 43.22565216 17.8125 43.1875 C15.80274419 43.17245474 13.79297773 43.15876606 11.78320312 43.14648438 C6.85520714 43.11339908 1.92771862 43.06160833 -3 43 C-5.23888731 38.97827832 -5.25786176 35.46704577 -5.1953125 30.953125 C-5.1924826 30.18192322 -5.18965271 29.41072144 -5.18673706 28.6161499 C-5.17557013 26.16060668 -5.15047229 23.7054324 -5.125 21.25 C-5.11496568 19.58203653 -5.10584061 17.91406732 -5.09765625 16.24609375 C-5.07564225 12.16392103 -5.04113667 8.082023 -5 4 C-2.525 4.99 -2.525 4.99 0 6 C-0.2784375 4.7934375 -0.2784375 4.7934375 -0.5625 3.5625 C-0.706875 2.716875 -0.85125 1.87125 -1 1 C-0.67 0.67 -0.34 0.34 0 0 Z " fill="#1B578D" transform="translate(22,58)"/>
<path d="M0 0 C1 1 1 1 1.12025452 3.05641174 C1.1169236 4.41209511 1.1169236 4.41209511 1.11352539 5.79516602 C1.11344986 6.81614883 1.11337433 7.83713165 1.11329651 8.88905334 C1.10813522 9.9994548 1.10297394 11.10985626 1.09765625 12.25390625 C1.0962413 13.38448959 1.09482635 14.51507294 1.09336853 15.67991638 C1.08775019 19.30747065 1.07519458 22.93496424 1.0625 26.5625 C1.05748736 29.01497307 1.05292405 31.4674471 1.04882812 33.91992188 C1.0377748 39.94663545 1.02101884 45.97331339 1 52 C-0.64574566 52.02688151 -2.29161413 52.04634123 -3.9375 52.0625 C-4.85402344 52.07410156 -5.77054687 52.08570313 -6.71484375 52.09765625 C-9 52 -9 52 -10 51 C-10.10869029 49.51227512 -10.14902873 48.01947287 -10.16113281 46.52783203 C-10.17074036 45.57659454 -10.1803479 44.62535706 -10.19024658 43.64529419 C-10.19449646 42.60992523 -10.19874634 41.57455627 -10.203125 40.5078125 C-10.20882507 39.45093231 -10.21452515 38.39405212 -10.22039795 37.30514526 C-10.22986448 35.06395474 -10.23638846 32.82275019 -10.24023438 30.58154297 C-10.24993908 27.14656359 -10.28094701 23.7121825 -10.3125 20.27734375 C-10.31902972 18.10417024 -10.32428031 15.93099242 -10.328125 13.7578125 C-10.3404718 12.726492 -10.3528186 11.69517151 -10.36553955 10.63259888 C-10.36253845 9.67505707 -10.35953735 8.71751526 -10.35644531 7.73095703 C-10.36009094 6.88792023 -10.36373657 6.04488342 -10.36749268 5.17630005 C-9.37467688 -0.70317786 -5.11923789 -0.37920281 0 0 Z " fill="#185792" transform="translate(126,50)"/>
<path d="M0 0 C26 0 26 0 34 3 C34.99 3.99 35.98 4.98 37 6 C36.67 6.99 36.34 7.98 36 9 C35.96125079 10.66621616 35.9549714 12.33394172 36 14 C33.03 14.99 30.06 15.98 27 17 C26.67 18.65 26.34 20.3 26 22 C21.23692563 22.95261487 16.8333472 23.08333357 12 23 C12 18.71 12 14.42 12 10 C7.05536365 11.33563616 7.05536365 11.33563616 6 14 C5.34 14 4.68 14 4 14 C3.73747375 9.66831683 4.70756464 6.1196377 6 2 C4.35 1.67 2.7 1.34 1 1 C1 17.5 1 34 1 51 C14.21892725 51.1855845 14.21892725 51.1855845 27 49 C29.6875 49.4375 29.6875 49.4375 32 50 C28.36693942 52.42204038 26.68180977 52.23302891 22.36328125 52.1953125 C20.60818237 52.18781982 20.60818237 52.18781982 18.81762695 52.18017578 C17.33093506 52.16196777 15.84424316 52.14375977 14.3125 52.125 C9.589375 52.08375 4.86625 52.0425 0 52 C0 34.84 0 17.68 0 0 Z M13 12 C12.92794489 13.68608966 12.91613932 15.37500659 12.9375 17.0625 C12.94652344 17.98160156 12.95554687 18.90070313 12.96484375 19.84765625 C12.97644531 20.55792969 12.98804687 21.26820312 13 22 C14.62580966 21.88601335 16.25067157 21.75844341 17.875 21.625 C18.77992187 21.55539063 19.68484375 21.48578125 20.6171875 21.4140625 C23.17941903 21.20431868 23.17941903 21.20431868 25 19 C25.50014953 16.54258463 25.50014953 16.54258463 25 14 C23.50098982 12.01990794 23.50098982 12.01990794 21 11 C16.69333075 10.37736372 16.69333075 10.37736372 13 12 Z " fill="#4580B6" transform="translate(72,50)"/>
<path d="M0 0 C1.32 0 2.64 0 4 0 C4.33 2.31 4.66 4.62 5 7 C5.70125 6.649375 6.4025 6.29875 7.125 5.9375 C10.56335867 4.81629609 12.5277549 5.09419693 16 6 C16.99 6.66 17.98 7.32 19 8 C19.66 7.484375 20.32 6.96875 21 6.4375 C25.17590882 4.43654369 27.49938235 5.09987647 32 6 C33.85634447 7.85634447 33.17368353 10.82829903 33.1875 13.3125 C33.20167969 14.46363281 33.21585938 15.61476562 33.23046875 16.80078125 C33.01119654 19.84457689 32.69195524 21.5006556 31 24 C27.78548731 25.60725635 24.56387464 25.05748185 21 25 C20.31292445 22.50935112 20 20.62113708 20 18 C19.67 17.34 19.34 16.68 19 16 C18.34 16.99 17.68 17.98 17 19 C14.94140625 19.6171875 14.94140625 19.6171875 12.5625 19.875 C11.38880859 20.02582031 11.38880859 20.02582031 10.19140625 20.1796875 C8 20 8 20 6.21484375 18.5078125 C5.81394531 18.01023438 5.41304688 17.51265625 5 17 C4.67 17.99 4.34 18.98 4 20 C2.35 19.67 0.7 19.34 -1 19 C-1.02690104 16.20826945 -1.04679053 13.41679652 -1.0625 10.625 C-1.07087891 9.8309375 -1.07925781 9.036875 -1.08789062 8.21875 C-1.11328125 2.2265625 -1.11328125 2.2265625 0 0 Z M9 10 C9 11.65 9 13.3 9 15 C10.65 15 12.3 15 14 15 C14 13.35 14 11.7 14 10 C12.35 10 10.7 10 9 10 Z M24 10 C23.67 11.32 23.34 12.64 23 14 C25.475 14.495 25.475 14.495 28 15 C28 13.35 28 11.7 28 10 C26.68 10 25.36 10 24 10 Z " fill="#5E7993" transform="translate(106,119)"/>
<path d="M0 0 C1.32 0 2.64 0 4 0 C4 1.65 4 3.3 4 5 C5.299375 5.12375 6.59875 5.2475 7.9375 5.375 C10.15234375 5.5859375 10.15234375 5.5859375 12 6 C13.38226016 8.76452033 13.09525387 11.0461363 13.0625 14.125 C13.05347656 15.22070312 13.04445312 16.31640625 13.03515625 17.4453125 C13.02355469 18.28835937 13.01195312 19.13140625 13 20 C11.35 19.67 9.7 19.34 8 19 C8 16.36 8 13.72 8 11 C6.68 10.67 5.36 10.34 4 10 C4 13.3 4 16.6 4 20 C2.08404032 20.08133791 0.16708068 20.13934367 -1.75 20.1875 C-3.35101563 20.23970703 -3.35101563 20.23970703 -4.984375 20.29296875 C-8.34736544 19.96625336 -9.63641253 19.36910987 -12 17 C-12.33 16.01 -12.66 15.02 -13 14 C-13 14.66 -13 15.32 -13 16 C-13 17.32 -13 18.64 -13 20 C-14.258125 20.020625 -15.51625 20.04125 -16.8125 20.0625 C-17.52019531 20.07410156 -18.22789063 20.08570313 -18.95703125 20.09765625 C-21 20 -21 20 -24 19 C-26.2704803 15.77352799 -26.56331995 12.86276537 -26 9 C-23.9375 6.5625 -23.9375 6.5625 -21 5 C-14.78947368 5.21052632 -14.78947368 5.21052632 -12 8 C-10.9171875 7.2575 -10.9171875 7.2575 -9.8125 6.5 C-6.84207346 4.91577251 -5.3012342 4.6331962 -2 5 C-1.67 5.33 -1.34 5.66 -1 6 C-0.67 4.02 -0.34 2.04 0 0 Z M-21 10 C-17 11 -17 11 -17 11 Z M-7 10 C-7.33 10.99 -7.66 11.98 -8 13 C-7.01 14.485 -7.01 14.485 -6 16 C-2.91634129 16.2502157 -2.91634129 16.2502157 0 16 C0 13.69 0 11.38 0 9 C-2.33859436 9 -4.70030423 9.60856242 -7 10 Z " fill="#385976" transform="translate(62,119)"/>
<path d="M0 0 C2.97 0 5.94 0 9 0 C9 12.21 9 24.42 9 37 C5.7 37 2.4 37 -1 37 C-2.93597985 35.06402015 -2.16381416 31.42954211 -2.16796875 28.7890625 C-2.17129715 28.06512299 -2.17462555 27.34118347 -2.17805481 26.5953064 C-2.18312739 25.06028887 -2.18546303 23.52526028 -2.18530273 21.99023438 C-2.18748445 19.64174151 -2.20562287 17.29372185 -2.22460938 14.9453125 C-2.22754419 13.45573078 -2.2295284 11.96614682 -2.23046875 10.4765625 C-2.23765427 9.77334869 -2.24483978 9.07013489 -2.25224304 8.34561157 C-2.23502296 4.66705311 -2.09860684 3.14791026 0 0 Z " fill="#19558D" transform="translate(133,65)"/>
<path d="M0 0 C0.90492188 0.02320312 1.80984375 0.04640625 2.7421875 0.0703125 C3.65226562 0.08835937 4.56234375 0.10640625 5.5 0.125 C6.19867188 0.14820312 6.89734375 0.17140625 7.6171875 0.1953125 C7.9471875 1.8453125 8.2771875 3.4953125 8.6171875 5.1953125 C7.9571875 5.1953125 7.2971875 5.1953125 6.6171875 5.1953125 C6.35164063 5.76636719 6.08609375 6.33742188 5.8125 6.92578125 C4.5586028 9.30654686 3.08504773 11.34167649 1.4921875 13.5078125 C-1.37941657 17.71763983 -2.02323099 20.17870096 -1.3828125 25.1953125 C-8.0078125 26.3203125 -8.0078125 26.3203125 -11.3828125 25.1953125 C-11.3828125 25.8553125 -11.3828125 26.5153125 -11.3828125 27.1953125 C-13.8578125 26.2053125 -13.8578125 26.2053125 -16.3828125 25.1953125 C-16.3828125 24.2053125 -16.3828125 23.2153125 -16.3828125 22.1953125 C-15.7228125 21.8653125 -15.0628125 21.5353125 -14.3828125 21.1953125 C-14.7128125 17.5653125 -15.0428125 13.9353125 -15.3828125 10.1953125 C-11.03336981 9.32542396 -9.41152725 9.15935728 -5.3828125 10.1953125 C-5.7128125 9.2053125 -6.0428125 8.2153125 -6.3828125 7.1953125 C-4.21080922 0.3451483 -4.21080922 0.3451483 0 0 Z " fill="#195A98" transform="translate(171.3828125,64.8046875)"/>
<path d="M0 0 C6.27 0 12.54 0 19 0 C19 0.33 19 0.66 19 1 C13.06 1 7.12 1 1 1 C1 15.52 1 30.04 1 45 C2.32 45.33 3.64 45.66 5 46 C8.44115502 41.66115237 9.15033633 38.2883887 9.5625 32.8125 C9.64628906 31.72582031 9.73007813 30.63914062 9.81640625 29.51953125 C9.90728516 28.27236328 9.90728516 28.27236328 10 27 C10.33 27 10.66 27 11 27 C11.33 31.29 11.66 35.58 12 40 C15.96 40 19.92 40 24 40 C24 39.34 24 38.68 24 38 C24.66 38 25.32 38 26 38 C26 35.69 26 33.38 26 31 C27.32 31.66 28.64 32.32 30 33 C29.58578031 37.83256305 27.53586014 39.82679218 24 43 C24.99 43.66 25.98 44.32 27 45 C27 44.34 27 43.68 27 43 C28.65 43 30.3 43 32 43 C32.495 42.01 32.495 42.01 33 41 C33.66 42.32 34.32 43.64 35 45 C34.01 45 33.02 45 32 45 C31.67 46.32 31.34 47.64 31 49 C29.02 49 27.04 49 25 49 C25 49.33 25 49.66 25 50 C16.75 50 8.5 50 0 50 C0 33.5 0 17 0 0 Z " fill="#185288" transform="translate(73,51)"/>
<path d="M0 0 C2.45485943 3.68228915 2.82932584 6.72454348 2 11 C0.55625961 13.3894658 -1.00320659 15.00320659 -3 17 C-2.195625 17.61875 -1.39125 18.2375 -0.5625 18.875 C2.30374622 21.25188711 2.87412151 21.94995031 3.30859375 25.57421875 C3.69932651 35.01100703 3.69932651 35.01100703 0 39.25 C-0.97265264 40.19563451 -1.96394661 41.1242882 -3 42 C-3.66 41.67 -4.32 41.34 -5 41 C-4.67 40.01 -4.34 39.02 -4 38 C-3.01 37.505 -3.01 37.505 -2 37 C-4.46278801 35.768606 -6.2795055 35.92840804 -9 36 C-9 36.66 -9 37.32 -9 38 C-10.32 37.67 -11.64 37.34 -13 37 C-12.1875 34.5625 -12.1875 34.5625 -11 32 C-10.01 31.67 -9.02 31.34 -8 31 C-7.67 29.35 -7.34 27.7 -7 26 C-7.99 25.34 -8.98 24.68 -10 24 C-10 26.31 -10 28.62 -10 31 C-10.66 30.67 -11.32 30.34 -12 30 C-12 28.02 -12 26.04 -12 24 C-15.31114834 22.87119943 -18.58978257 21.78697325 -22 21 C-22 20.67 -22 20.34 -22 20 C-21.38511719 19.89042969 -20.77023438 19.78085938 -20.13671875 19.66796875 C-19.32847656 19.50941406 -18.52023438 19.35085937 -17.6875 19.1875 C-16.88699219 19.03667969 -16.08648437 18.88585937 -15.26171875 18.73046875 C-12.93665242 18.16917859 -12.93665242 18.16917859 -11.46875 16.46875 C-8.85985606 13.85985606 -5.5549444 14.29138889 -2 14 C-2 12.35 -2 10.7 -2 9 C-1.34 9 -0.68 9 0 9 C0 6.03 0 3.06 0 0 Z " fill="#25619A" transform="translate(109,58)"/>
<path d="M0 0 C0.33 0.66 0.66 1.32 1 2 C2.32303717 2.3721042 3.65737935 2.70630173 5 3 C6.57897833 4.57897833 6.24543509 6.19362572 6.3125 8.375 C6.25087968 12.68157579 6.25087968 12.68157579 4.375 15.0625 C1.37618586 16.24624242 -0.80052387 16.3403698 -4 16 C-4.99 15.34 -5.98 14.68 -7 14 C-7.66 14.66 -8.32 15.32 -9 16 C-10.32 15.67 -11.64 15.34 -13 15 C-13 12.03 -13 9.06 -13 6 C-14.32 6 -15.64 6 -17 6 C-17 9.3 -17 12.6 -17 16 C-18.65 15.67 -20.3 15.34 -22 15 C-22 11.04 -22 7.08 -22 3 C-16.12896343 0.65158537 -12.88109821 1.03963393 -7 3 C-4.63477442 2.07796291 -2.29598193 1.08301035 0 0 Z M-3 6 C-3.33 7.32 -3.66 8.64 -4 10 C-1.525 10.495 -1.525 10.495 1 11 C1.33 9.68 1.66 8.36 2 7 C0.35 6.67 -1.3 6.34 -3 6 Z " fill="#435F7C" transform="translate(98,123)"/>
<path d="M0 0 C1.65 0.33 3.3 0.66 5 1 C5 2.98 5 4.96 5 7 C5.70125 6.649375 6.4025 6.29875 7.125 5.9375 C10.55046754 4.82049971 12.54602707 5.07894055 16 6 C16.66 6.66 17.32 7.32 18 8 C17.625 11 17.625 11 17 14 C17 14.66 17 15.32 17 16 C17 17.32 17 18.64 17 20 C15.56344146 20.08131463 14.1255517 20.13933559 12.6875 20.1875 C11.48673828 20.23970703 11.48673828 20.23970703 10.26171875 20.29296875 C7.52148416 19.93801608 6.70828921 19.10633718 5 17 C4.67 17.99 4.34 18.98 4 20 C2.68 20 1.36 20 0 20 C0 13.33333333 0 6.66666667 0 0 Z M9 10 C13 11 13 11 13 11 Z " fill="#5F748C" transform="translate(140,119)"/>
<path d="M0 0 C1.67542976 0.28604898 3.34385343 0.61781233 5 1 C4.7834375 1.9590625 4.7834375 1.9590625 4.5625 2.9375 C2.63155289 13.45043428 0.62639727 24.71873179 7 34 C7.66 34.66 8.32 35.32 9 36 C6 37 6 37 3 37 C2.34 38.32 1.68 39.64 1 41 C0.01 40.67 -0.98 40.34 -2 40 C-1.01 39.505 -1.01 39.505 0 39 C0 38.01 0 37.02 0 36 C-0.66 36 -1.32 36 -2 36 C-4 34 -4 34 -4.1953125 32.0546875 C-4.13020833 30.03645833 -4.06510417 28.01822917 -4 26 C-2.68 25.34 -1.36 24.68 0 24 C0 22.68 0 21.36 0 20 C-1.98 20.99 -1.98 20.99 -4 22 C-5.2062252 18.38132441 -5.10816918 15.07493749 -5.0625 11.3125 C-5.05798828 10.61060547 -5.05347656 9.90871094 -5.04882812 9.18554688 C-5.03706927 7.45699462 -5.01913454 5.72848635 -5 4 C-2.525 4.99 -2.525 4.99 0 6 C-0.2784375 4.7934375 -0.2784375 4.7934375 -0.5625 3.5625 C-0.706875 2.716875 -0.85125 1.87125 -1 1 C-0.67 0.67 -0.34 0.34 0 0 Z " fill="#195F9D" transform="translate(22,58)"/>
<path d="M0 0 C1.85634447 1.85634447 1.17368353 4.82829903 1.1875 7.3125 C1.20167969 8.46363281 1.21585938 9.61476562 1.23046875 10.80078125 C1.01119654 13.84457689 0.69195524 15.5006556 -1 18 C-4.21451269 19.60725635 -7.43612536 19.05748185 -11 19 C-11.68707555 16.50935112 -12 14.62113708 -12 12 C-12.66 11.01 -13.32 10.02 -14 9 C-13.92878624 5.01202934 -13.85529048 2.82937259 -10.9375 0 C-6.85113627 -1.39110255 -4.22311427 -0.84462285 0 0 Z M-8 4 C-8.33 5.32 -8.66 6.64 -9 8 C-6.525 8.495 -6.525 8.495 -4 9 C-4 7.35 -4 5.7 -4 4 C-5.32 4 -6.64 4 -8 4 Z " fill="#7E92AC" transform="translate(138,125)"/>
<path d="M0 0 C1.32 0 2.64 0 4 0 C4 1.65 4 3.3 4 5 C5.299375 5.12375 6.59875 5.2475 7.9375 5.375 C10.15234375 5.5859375 10.15234375 5.5859375 12 6 C13.38226016 8.76452033 13.09525387 11.0461363 13.0625 14.125 C13.05347656 15.22070312 13.04445313 16.31640625 13.03515625 17.4453125 C13.02355469 18.28835937 13.01195313 19.13140625 13 20 C11.35 19.67 9.7 19.34 8 19 C8 16.36 8 13.72 8 11 C6.68 10.67 5.36 10.34 4 10 C4 13.3 4 16.6 4 20 C2.04174127 20.02694851 0.08337774 20.04637218 -1.875 20.0625 C-2.96554688 20.07410156 -4.05609375 20.08570313 -5.1796875 20.09765625 C-8 20 -8 20 -10 19 C-10 18.01 -10 17.02 -10 16 C-6.7 16 -3.4 16 0 16 C0 13.69 0 11.38 0 9 C-2.31 9 -4.62 9 -7 9 C-7.33 8.34 -7.66 7.68 -8 7 C-4.535 6.505 -4.535 6.505 -1 6 C-0.67 4.02 -0.34 2.04 0 0 Z " fill="#7D93AC" transform="translate(62,119)"/>
<path d="M0 0 C7.26153846 -0.49230769 7.26153846 -0.49230769 11 2 C11.66 2.66 12.32 3.32 13 4 C12.67 4.99 12.34 5.98 12 7 C11.96125079 8.66621616 11.9549714 10.33394172 12 12 C9.03 12.99 6.06 13.98 3 15 C2.67 16.65 2.34 18.3 2 20 C-2.76307437 20.95261487 -7.1666528 21.08333357 -12 21 C-12 16.38 -12 11.76 -12 7 C-5.565 6.505 -5.565 6.505 1 6 C1.33 4.35 1.66 2.7 2 1 C1.34 0.67 0.68 0.34 0 0 Z M-11 10 C-11.07205511 11.68608966 -11.08386068 13.37500659 -11.0625 15.0625 C-11.05347656 15.98160156 -11.04445313 16.90070313 -11.03515625 17.84765625 C-11.02355469 18.55792969 -11.01195313 19.26820312 -11 20 C-9.37419034 19.88601335 -7.74932843 19.75844341 -6.125 19.625 C-5.22007813 19.55539063 -4.31515625 19.48578125 -3.3828125 19.4140625 C-0.82058097 19.20431868 -0.82058097 19.20431868 1 17 C1.50014953 14.54258463 1.50014953 14.54258463 1 12 C-0.49901018 10.01990794 -0.49901018 10.01990794 -3 9 C-7.30666925 8.37736372 -7.30666925 8.37736372 -11 10 Z " fill="#1861A4" transform="translate(96,52)"/>
<path d="M0 0 C3.78048304 -0.49221479 7.23657437 -0.68609368 11 0 C13.93489468 2.28380883 15.97208812 4.89930197 18 8 C19.32 7.01 20.64 6.02 22 5 C22 6.65 22 8.3 22 10 C21.2575 9.95875 20.515 9.9175 19.75 9.875 C16.66578189 9.82866033 16.66578189 9.82866033 13 12 C13.33 14.97 13.66 17.94 14 21 C12.35 21.33 10.7 21.66 9 22 C9.26683594 21.31035156 9.53367188 20.62070313 9.80859375 19.91015625 C10.089345 15.64159137 7.71478341 13.49836891 5.0625 10.4375 C0 4.50753012 0 4.50753012 0 0 Z " fill="#2E69A0" transform="translate(144,65)"/>
<path d="M0 0 C5.48092694 -0.07420027 10.96156099 -0.1286258 16.44287109 -0.16479492 C18.30718072 -0.17987414 20.17145492 -0.20034061 22.03564453 -0.22631836 C24.71656033 -0.26273996 27.3970068 -0.2797349 30.078125 -0.29296875 C31.32677338 -0.31619453 31.32677338 -0.31619453 32.60064697 -0.33988953 C36.05045647 -0.34089106 38.38628795 -0.31196028 41.49511719 1.26831055 C44.91276061 5.20104008 44.16064372 10.1601534 44.16796875 15.125 C44.17296135 16.3008667 44.17296135 16.3008667 44.17805481 17.50048828 C44.18310767 19.15461644 44.18546364 20.80875475 44.18530273 22.46289062 C44.18749225 24.99105588 44.20567331 27.5187867 44.22460938 30.046875 C44.22754305 31.65624851 44.22952802 33.26562409 44.23046875 34.875 C44.23765427 35.6292627 44.24483978 36.38352539 44.25224304 37.16064453 C44.23599651 40.89686909 44.2191846 43.89343427 42 47 C39.69179492 48.15410254 38.39215724 48.1210297 35.82568359 48.11352539 C34.53457169 48.11341209 34.53457169 48.11341209 33.21737671 48.11329651 C32.28712677 48.10813522 31.35687683 48.10297394 30.3984375 48.09765625 C29.44683746 48.0962413 28.49523743 48.09482635 27.51480103 48.09336853 C24.46816903 48.08776012 21.42160987 48.07520619 18.375 48.0625 C16.31250106 48.05748608 14.25000097 48.05292299 12.1875 48.04882812 C7.12497183 48.03778796 2.06249827 48.02051767 -3 48 C-3 47.67 -3 47.34 -3 47 C10.86 47 24.72 47 39 47 C39.33 46.01 39.66 45.02 40 44 C40.66 44 41.32 44 42 44 C42 30.8 42 17.6 42 4 C39.525 3.505 39.525 3.505 37 3 C37 2.34 37 1.68 37 1 C24.79 1 12.58 1 0 1 C0 0.67 0 0.34 0 0 Z " fill="#92B0C4" transform="translate(22,54)"/>
<path d="M0 0 C2.02910711 0.25327449 4.04962145 0.57730068 6.0625 0.9375 C7.16722656 1.13214844 8.27195312 1.32679687 9.41015625 1.52734375 C10.69212891 1.76130859 10.69212891 1.76130859 12 2 C12 3.65 12 5.3 12 7 C12.99 6.67 13.98 6.34 15 6 C17.39490986 5.93029948 19.79167691 5.91551997 22.1875 5.9375 C23.45980469 5.94652344 24.73210938 5.95554687 26.04296875 5.96484375 C27.50669922 5.98224609 27.50669922 5.98224609 29 6 C29 6.33 29 6.66 29 7 C27.69675781 7.05607422 27.69675781 7.05607422 26.3671875 7.11328125 C17.7669215 7.52863838 17.7669215 7.52863838 10 11 C9.01 11.495 9.01 11.495 8 12 C7.17361624 9.10765685 7 7.11257569 7 4 C6.01 4 5.02 4 4 4 C4.33 5.65 4.66 7.3 5 9 C4.01 9.495 4.01 9.495 3 10 C2.01 9.34 1.02 8.68 0 8 C-0.02475064 12.76887637 -0.04288403 17.53771521 -0.05493164 22.30664062 C-0.05995505 23.92839204 -0.06677494 25.55013895 -0.07543945 27.171875 C-0.08759229 29.50521969 -0.09324828 31.8385044 -0.09765625 34.171875 C-0.10281754 34.89493835 -0.10797882 35.61800171 -0.11329651 36.36297607 C-0.11366918 39.7201275 -0.04907619 42.79106108 1 46 C0.01 45.67 -0.98 45.34 -2 45 C-2.88293805 37.6520046 -3.18280599 30.39775556 -3.1875 23 C-3.19974609 21.98421875 -3.21199219 20.9684375 -3.22460938 19.921875 C-3.23707453 13.43999632 -2.77650596 7.26249122 -1 1 C-0.67 0.67 -0.34 0.34 0 0 Z " fill="#6E9AC3" transform="translate(18,55)"/>
<path d="M0 0 C0.33 0 0.66 0 1 0 C1 4.29 1 8.58 1 13 C0.34 12.34 -0.32 11.68 -1 11 C-1.99 11.495 -1.99 11.495 -3 12 C-3.11320856 17.08303686 -3.11320856 17.08303686 -2 22 C-1.34 22 -0.68 22 0 22 C-0.33 23.32 -0.66 24.64 -1 26 C1.50357192 24.74821404 3.06433379 23.00018842 5 21 C6.98 21.66 8.96 22.32 11 23 C10.01 23.33 9.02 23.66 8 24 C8 24.66 8 25.32 8 26 C8.66 26 9.32 26 10 26 C10 26.66 10 27.32 10 28 C19.57 28 29.14 28 39 28 C39 28.33 39 28.66 39 29 C25.14 29 11.28 29 -3 29 C-4.87225366 25.25549268 -5.24550933 24.14972809 -5.1953125 20.234375 C-5.18886719 19.34492187 -5.18242187 18.45546875 -5.17578125 17.5390625 C-5.15902344 16.61867188 -5.14226563 15.69828125 -5.125 14.75 C-5.11597656 13.81414062 -5.10695313 12.87828125 -5.09765625 11.9140625 C-5.07413636 9.60911343 -5.04126853 7.3046884 -5 5 C-4.67 5.99 -4.34 6.98 -4 8 C-0.68539295 6.29107501 -0.68539295 6.29107501 -0.3125 2.875 C-0.209375 1.92625 -0.10625 0.9775 0 0 Z " fill="#195287" transform="translate(22,72)"/>
<path d="M0 0 C1 4.75 1 4.75 1 7 C1.33 7.33 1.66 7.66 2 8 C2.25 10.4375 2.25 10.4375 2 13 C-1.77635253 15.51756835 -4.56365558 15.63772451 -9 15 C-11 13.5 -11 13.5 -12 12 C-10.68 11.01 -9.36 10.02 -8 9 C-8.99 8.34 -9.98 7.68 -11 7 C-10.6875 4.625 -10.6875 4.625 -10 2 C-6.3558226 -0.4294516 -4.28758728 -0.16179575 0 0 Z " fill="#889CB2" transform="translate(170,124)"/>
<path d="M0 0 C5.61 0 11.22 0 17 0 C17.33 0.99 17.66 1.98 18 3 C16.02 3.66 14.04 4.32 12 5 C11.67 9.95 11.34 14.9 11 20 C9.35 20 7.7 20 6 20 C5.8041991 18.08416353 5.61867786 16.16727461 5.4375 14.25 C5.33308594 13.18265625 5.22867187 12.1153125 5.12109375 11.015625 C5.01439926 8.35858796 5.18069605 6.50039428 6 4 C4.02 4 2.04 4 0 4 C0 2.68 0 1.36 0 0 Z " fill="#7C91A4" transform="translate(24,119)"/>
<path d="M0 0 C1 1 1 1 1.12025452 3.05641174 C1.1169236 4.41209511 1.1169236 4.41209511 1.11352539 5.79516602 C1.11344986 6.81614883 1.11337433 7.83713165 1.11329651 8.88905334 C1.10813522 9.9994548 1.10297394 11.10985626 1.09765625 12.25390625 C1.0962413 13.38448959 1.09482635 14.51507294 1.09336853 15.67991638 C1.08775019 19.30747065 1.07519458 22.93496424 1.0625 26.5625 C1.05748736 29.01497307 1.05292405 31.4674471 1.04882812 33.91992188 C1.0377748 39.94663545 1.02101884 45.97331339 1 52 C-0.64574566 52.02688151 -2.29161413 52.04634123 -3.9375 52.0625 C-4.85402344 52.07410156 -5.77054687 52.08570313 -6.71484375 52.09765625 C-9 52 -9 52 -10 51 C-10.10869029 49.51227512 -10.14902873 48.01947287 -10.16113281 46.52783203 C-10.17074036 45.57659454 -10.1803479 44.62535706 -10.19024658 43.64529419 C-10.19449646 42.60992523 -10.19874634 41.57455627 -10.203125 40.5078125 C-10.20882507 39.45093231 -10.21452515 38.39405212 -10.22039795 37.30514526 C-10.22986448 35.06395474 -10.23638846 32.82275019 -10.24023438 30.58154297 C-10.24993908 27.14656359 -10.28094701 23.7121825 -10.3125 20.27734375 C-10.31902972 18.10417024 -10.32428031 15.93099242 -10.328125 13.7578125 C-10.3404718 12.726492 -10.3528186 11.69517151 -10.36553955 10.63259888 C-10.36253845 9.67505707 -10.35953735 8.71751526 -10.35644531 7.73095703 C-10.36009094 6.88792023 -10.36373657 6.04488342 -10.36749268 5.17630005 C-9.37467688 -0.70317786 -5.11923789 -0.37920281 0 0 Z M-7 3 C-9.10483746 6.15725619 -9.2472059 6.87374611 -9.22705078 10.47143555 C-9.22689972 11.37214279 -9.22674866 12.27285004 -9.22659302 13.20085144 C-9.21627045 14.16968765 -9.20594788 15.13852386 -9.1953125 16.13671875 C-9.1924826 17.13129593 -9.18965271 18.12587311 -9.18673706 19.15058899 C-9.17553489 22.3296813 -9.15043014 25.50849272 -9.125 28.6875 C-9.11497025 30.84179281 -9.10584439 32.99609003 -9.09765625 35.15039062 C-9.07559541 40.43370211 -9.04106521 45.71680342 -9 51 C-6.03 51 -3.06 51 0 51 C0.02469323 44.64624313 0.04285678 38.29251411 0.05493164 31.9387207 C0.05996472 29.77660638 0.06679169 27.61449547 0.07543945 25.45239258 C0.08754979 22.34715941 0.09323852 19.2419712 0.09765625 16.13671875 C0.10281754 15.16788254 0.10797882 14.19904633 0.11329651 13.20085144 C0.11337204 12.3001442 0.11344757 11.39943695 0.11352539 10.47143555 C0.115746 9.67867722 0.11796661 8.88591888 0.12025452 8.06913757 C0.07865777 5.80155302 0.07865777 5.80155302 -1 3 C-3.91634129 2.7497843 -3.91634129 2.7497843 -7 3 Z " fill="#90B0CB" transform="translate(126,50)"/>
<path d="M0 0 C2.97 0 5.94 0 9 0 C9 12.21 9 24.42 9 37 C5.7 37 2.4 37 -1 37 C-2.93597985 35.06402015 -2.16381416 31.42954211 -2.16796875 28.7890625 C-2.17129715 28.06512299 -2.17462555 27.34118347 -2.17805481 26.5953064 C-2.18312739 25.06028887 -2.18546303 23.52526028 -2.18530273 21.99023438 C-2.18748445 19.64174151 -2.20562287 17.29372185 -2.22460938 14.9453125 C-2.22754419 13.45573078 -2.2295284 11.96614682 -2.23046875 10.4765625 C-2.23765427 9.77334869 -2.24483978 9.07013489 -2.25224304 8.34561157 C-2.23502296 4.66705311 -2.09860684 3.14791026 0 0 Z M1 1 C2.98 1.495 2.98 1.495 5 2 C3 4 3 4 0 5 C0 15.23 0 25.46 0 36 C2.64 36 5.28 36 8 36 C8 24.45 8 12.9 8 1 C5.69 1 3.38 1 1 1 Z " fill="#7898B8" transform="translate(133,65)"/>
<path d="M0 0 C1.875 1.125 1.875 1.125 3 3 C3.54400387 6.65259739 3.43774093 8.3433886 1.375 11.4375 C-1 13 -1 13 -4.125 12.875 C-7 12 -7 12 -9 10 C-9.30078125 8.125 -9.30078125 8.125 -9.3125 6 C-9.32925781 5.29875 -9.34601563 4.5975 -9.36328125 3.875 C-9.24339844 3.25625 -9.12351563 2.6375 -9 2 C-5.53076119 -0.31282587 -4.07794425 -0.42478586 0 0 Z " fill="#558BB8" transform="translate(140,50)"/>
<path d="M0 0 C1.60725635 3.21451269 1.05748185 6.43612536 1 10 C0.01 10.33 -0.98 10.66 -2 11 C-2 8.69 -2 6.38 -2 4 C-3.65 4 -5.3 4 -7 4 C-7 7.3 -7 10.6 -7 14 C-8.65 13.67 -10.3 13.34 -12 13 C-12 9.04 -12 5.08 -12 1 C-6.90532565 -1.03786974 -5.15666552 -1.18999974 0 0 Z " fill="#6B859C" transform="translate(88,125)"/>
<path d="M0 0 C0.33 0.66 0.66 1.32 1 2 C0.67 2.99 0.34 3.98 0 5 C-0.71213234 12.22639213 -0.16583426 17.9336939 4 24 C4.66 24.66 5.32 25.32 6 26 C3 27 3 27 0 27 C-0.66 28.32 -1.32 29.64 -2 31 C-2.99 30.67 -3.98 30.34 -5 30 C-4.34 29.67 -3.68 29.34 -3 29 C-3 28.01 -3 27.02 -3 26 C-3.66 26 -4.32 26 -5 26 C-7 24 -7 24 -7.1953125 22.0546875 C-7.13020833 20.03645833 -7.06510417 18.01822917 -7 16 C-6.04673828 15.70802734 -6.04673828 15.70802734 -5.07421875 15.41015625 C-2.67848234 14.11306227 -2.67848234 14.11306227 -2.20703125 10.99609375 C-2.07683594 9.82175781 -1.94664063 8.64742187 -1.8125 7.4375 C-1.06575682 1.06575682 -1.06575682 1.06575682 0 0 Z " fill="#3A70A3" transform="translate(25,68)"/>
<path d="M0 0 C2.45485943 3.68228915 2.82932584 6.72454348 2 11 C0.55625961 13.3894658 -1.00320659 15.00320659 -3 17 C-2.67 17.66 -2.34 18.32 -2 19 C-2.99 19.33 -3.98 19.66 -5 20 C-5.33 19.67 -5.66 19.34 -6 19 C-6.33 19.99 -6.66 20.98 -7 22 C-8.32 21.34 -9.64 20.68 -11 20 C-11 20.99 -11 21.98 -11 23 C-10.34 23.33 -9.68 23.66 -9 24 C-9.33 26.31 -9.66 28.62 -10 31 C-10.66 30.67 -11.32 30.34 -12 30 C-12 28.02 -12 26.04 -12 24 C-15.31114834 22.87119943 -18.58978257 21.78697325 -22 21 C-22 20.67 -22 20.34 -22 20 C-21.38511719 19.89042969 -20.77023438 19.78085938 -20.13671875 19.66796875 C-19.32847656 19.50941406 -18.52023438 19.35085937 -17.6875 19.1875 C-16.88699219 19.03667969 -16.08648437 18.88585937 -15.26171875 18.73046875 C-12.93665242 18.16917859 -12.93665242 18.16917859 -11.46875 16.46875 C-8.85985606 13.85985606 -5.5549444 14.29138889 -2 14 C-2 12.35 -2 10.7 -2 9 C-1.34 9 -0.68 9 0 9 C0 6.03 0 3.06 0 0 Z " fill="#4479A6" transform="translate(109,58)"/>
<path d="M0 0 C1.37478516 0.01740234 1.37478516 0.01740234 2.77734375 0.03515625 C3.69644531 0.04417969 4.61554688 0.05320312 5.5625 0.0625 C6.27277344 0.07410156 6.98304688 0.08570312 7.71484375 0.09765625 C8.04484375 1.74765625 8.37484375 3.39765625 8.71484375 5.09765625 C8.05484375 5.09765625 7.39484375 5.09765625 6.71484375 5.09765625 C6.44800781 5.67 6.18117187 6.24234375 5.90625 6.83203125 C4.66587568 9.19077586 3.25538711 11.22076825 1.65234375 13.34765625 C1.12511719 14.0540625 0.59789062 14.76046875 0.0546875 15.48828125 C-0.60853516 16.28492188 -0.60853516 16.28492188 -1.28515625 17.09765625 C-1.61515625 17.09765625 -1.94515625 17.09765625 -2.28515625 17.09765625 C-2.69692379 13.49469031 -2.43874155 12.31363558 -0.28515625 9.28515625 C0.37484375 8.56328125 1.03484375 7.84140625 1.71484375 7.09765625 C1.05484375 7.09765625 0.39484375 7.09765625 -0.28515625 7.09765625 C-0.61515625 6.43765625 -0.94515625 5.77765625 -1.28515625 5.09765625 C-2.60515625 5.09765625 -3.92515625 5.09765625 -5.28515625 5.09765625 C-2.87806166 0.12299409 -2.87806166 0.12299409 0 0 Z " fill="#3570A3" transform="translate(171.28515625,64.90234375)"/>
<path d="M0 0 C1.32 0 2.64 0 4 0 C4.19522373 2.58296017 4.38144403 5.16604079 4.5625 7.75 C4.61857422 8.47960937 4.67464844 9.20921875 4.73242188 9.9609375 C4.97709908 13.54953651 4.99666259 16.55027225 4 20 C2.35 19.67 0.7 19.34 -1 19 C-1.02690104 16.20826945 -1.04679053 13.41679652 -1.0625 10.625 C-1.07087891 9.8309375 -1.07925781 9.036875 -1.08789062 8.21875 C-1.11328125 2.2265625 -1.11328125 2.2265625 0 0 Z " fill="#5F7895" transform="translate(106,119)"/>
<path d="M0 0 C1.65 0.33 3.3 0.66 5 1 C5.02714735 3.22909871 5.04646254 5.45829367 5.0625 7.6875 C5.07410156 8.92886719 5.08570313 10.17023438 5.09765625 11.44921875 C5.01478673 14.46235454 4.70839449 17.08275339 4 20 C2.68 20 1.36 20 0 20 C0 13.33333333 0 6.66666667 0 0 Z " fill="#647D98" transform="translate(140,119)"/>
<path d="M0 0 C5.48092694 -0.07420027 10.96156099 -0.1286258 16.44287109 -0.16479492 C18.30718072 -0.17987414 20.17145492 -0.20034061 22.03564453 -0.22631836 C24.71656033 -0.26273996 27.3970068 -0.2797349 30.078125 -0.29296875 C30.91055725 -0.30845261 31.7429895 -0.32393646 32.60064697 -0.33988953 C35.90713163 -0.34084945 38.44310199 -0.22155696 41.53320312 1.0078125 C43.84712933 4.15056181 43.49072237 7.42508379 43.390625 11.16796875 C43.38496521 11.96278152 43.37930542 12.7575943 43.37347412 13.57649231 C43.35109004 16.11410866 43.30089262 18.6503108 43.25 21.1875 C43.2299375 22.90818273 43.21168629 24.62888759 43.1953125 26.34960938 C43.15121894 30.56695082 43.08217965 34.78323569 43 39 C42.67 39 42.34 39 42 39 C42 27.45 42 15.9 42 4 C39.525 3.505 39.525 3.505 37 3 C37 2.34 37 1.68 37 1 C24.79 1 12.58 1 0 1 C0 0.67 0 0.34 0 0 Z " fill="#769DBD" transform="translate(22,54)"/>
<path d="M0 0 C0.928125 0.350625 1.85625 0.70125 2.8125 1.0625 C5.9802953 2.32382628 5.9802953 2.32382628 9 1 C11.2477975 3.05233685 12.0022242 4.00667261 13 7 C9.59637181 9.4109033 6.77633775 9.1075374 2.84375 8.4765625 C1 8 1 8 -1.0625 6.6875 C-2 5 -2 5 -1.75 2.875 C-1 1 -1 1 0 0 Z " fill="#44698C" transform="translate(168,94)"/>
<path d="M0 0 C1.22589844 0.01353516 1.22589844 0.01353516 2.4765625 0.02734375 C3.41628906 0.04474609 3.41628906 0.04474609 4.375 0.0625 C5.035 1.3825 5.695 2.7025 6.375 4.0625 C3.75048383 6.68701617 1.8872172 6.6457868 -1.75 7.1875 C-2.84570312 7.35507813 -3.94140625 7.52265625 -5.0703125 7.6953125 C-6.33488281 7.87707031 -6.33488281 7.87707031 -7.625 8.0625 C-7.36938677 5.7193787 -7.03229228 3.38406597 -6.625 1.0625 C-4.21954362 -0.14022819 -2.67503047 -0.03821472 0 0 Z " fill="#4375A1" transform="translate(40.625,68.9375)"/>
<path d="M0 0 C-0.99 0 -1.98 0 -3 0 C-3.33 0.66 -3.66 1.32 -4 2 C-4.99 2 -5.98 2 -7 2 C-7 2.66 -7 3.32 -7 4 C-3.04 4 0.92 4 5 4 C5 6.64 5 9.28 5 12 C4.34 12 3.68 12 3 12 C3 9.69 3 7.38 3 5 C2.38125 5.165 1.7625 5.33 1.125 5.5 C-4.78486841 6.44557894 -10.6892822 7.10302911 -16 4 C-15.67 3.01 -15.34 2.02 -15 1 C-13.25215171 0.63536268 -11.50159498 0.2836922 -9.75 -0.0625 C-8.28820313 -0.35833984 -8.28820313 -0.35833984 -6.796875 -0.66015625 C-4.131881 -0.98397535 -2.51128277 -0.85503199 0 0 Z " fill="#7291B0" transform="translate(50,82)"/>
<path d="M0 0 C0.33 0 0.66 0 1 0 C1.05418326 2.08304538 1.09287551 4.16649768 1.125 6.25 C1.14820313 7.41015625 1.17140625 8.5703125 1.1953125 9.765625 C1.00925052 12.84681133 0.71695953 14.4785909 -1 17 C-4.21451269 18.60725635 -7.43612536 18.05748185 -11 18 C-11.33 16.68 -11.66 15.36 -12 14 C-8.5647952 11.70986347 -7.014669 11.82157027 -3 12 C-2.67 12.66 -2.34 13.32 -2 14 C-0.64908472 11.29816945 -0.66141942 8.88191794 -0.4375 5.875 C-0.35371094 4.77929688 -0.26992187 3.68359375 -0.18359375 2.5546875 C-0.12300781 1.71164063 -0.06242188 0.86859375 0 0 Z " fill="#8398B0" transform="translate(138,126)"/>
<path d="M0 0 C-0.639375 0.309375 -1.27875 0.61875 -1.9375 0.9375 C-3.93610821 1.8345163 -3.93610821 1.8345163 -5 3 C-2.03 3.495 -2.03 3.495 1 4 C1 4.33 1 4.66 1 5 C-0.98 5 -2.96 5 -5 5 C-4.67 6.65 -4.34 8.3 -4 10 C-2.35 10 -0.7 10 1 10 C0.34 10.66 -0.32 11.32 -1 12 C-4.625 11.625 -4.625 11.625 -8 11 C-8.33 11.66 -8.66 12.32 -9 13 C-11.02190923 7.76682316 -11.02190923 7.76682316 -10.9375 4.8125 C-8.66410981 0.41727897 -4.60000709 -0.39428632 0 0 Z " fill="#8DA3B8" transform="translate(60,124)"/>
<path d="M0 0 C3.3 0 6.6 0 10 0 C10.05406122 1.93719378 10.09282025 3.87481921 10.125 5.8125 C10.14820313 6.89144531 10.17140625 7.97039062 10.1953125 9.08203125 C10 12 10 12 8 15 C7.67 14.01 7.34 13.02 7 12 C5.02 12 3.04 12 1 12 C0.67 11.34 0.34 10.68 0 10 C3.465 9.505 3.465 9.505 7 9 C7 6.69 7 4.38 7 2 C4.69 1.67 2.38 1.34 0 1 C0 0.67 0 0.34 0 0 Z " fill="#254469" transform="translate(128,126)"/>
<path d="M0 0 C0.66 0.66 1.32 1.32 2 2 C1.69347955 4.9425963 1.32728846 7.34542308 0 10 C-2.31 10 -4.62 10 -7 10 C-7 9.34 -7 8.68 -7 8 C-5.68 8 -4.36 8 -3 8 C-3 7.34 -3 6.68 -3 6 C-4.65 6 -6.3 6 -8 6 C-7.67 5.01 -7.34 4.02 -7 3 C-6.34 3 -5.68 3 -5 3 C-5 2.34 -5 1.68 -5 1 C-6.65 1.33 -8.3 1.66 -10 2 C-7.87796313 -2.24407375 -3.91713209 -0.9167756 0 0 Z M-7 4 C-3 5 -3 5 -3 5 Z " fill="#819CB6" transform="translate(156,125)"/>
<path d="M0 0 C11.48943149 -0.37062682 11.48943149 -0.37062682 13.82421875 1.32421875 C15 3 15 3 16 6 C15.0625 9.1875 15.0625 9.1875 14 12 C9.23692563 12.95261487 4.8333472 13.08333357 0 13 C0 8.71 0 4.42 0 0 Z M1 2 C0.92794489 3.68608966 0.91613932 5.37500659 0.9375 7.0625 C0.94652344 7.98160156 0.95554687 8.90070313 0.96484375 9.84765625 C0.97644531 10.55792969 0.98804687 11.26820312 1 12 C2.62580966 11.88601335 4.25067157 11.75844341 5.875 11.625 C6.77992187 11.55539063 7.68484375 11.48578125 8.6171875 11.4140625 C11.17941903 11.20431868 11.17941903 11.20431868 13 9 C13.50014953 6.54258463 13.50014953 6.54258463 13 4 C11.50098982 2.01990794 11.50098982 2.01990794 9 1 C4.69333075 0.37736372 4.69333075 0.37736372 1 2 Z " fill="#6F97BD" transform="translate(84,60)"/>
<path d="M0 0 C2.97 0 5.94 0 9 0 C9 0.66 9 1.32 9 2 C7.35 2.33 5.7 2.66 4 3 C3.67 7.95 3.34 12.9 3 18 C2.01 18 1.02 18 0 18 C0 12.06 0 6.12 0 0 Z " fill="#1C4064" transform="translate(31,120)"/>
<path d="M0 0 C0.88935377 3.303314 1.46274105 6.62294375 2 10 C2.99 9.67 3.98 9.34 5 9 C5 7.68 5 6.36 5 5 C7.31 5 9.62 5 12 5 C12 7.33333333 12 9.66666667 12 12 C10.741875 12.020625 9.48375 12.04125 8.1875 12.0625 C7.47980469 12.07410156 6.77210937 12.08570313 6.04296875 12.09765625 C4 12 4 12 1 11 C-1.27645664 7.7650353 -1.25800605 4.87009071 -1 1 C-0.67 0.67 -0.34 0.34 0 0 Z " fill="#738A9E" transform="translate(37,127)"/>
<path d="M0 0 C0.66 0.33 1.32 0.66 2 1 C2 5.29 2 9.58 2 14 C1.67 14 1.34 14 1 14 C1 11.69 1 9.38 1 7 C-0.32 7.33 -1.64 7.66 -3 8 C-3 7.34 -3 6.68 -3 6 C-3.99 6 -4.98 6 -6 6 C-6 4.35 -6 2.7 -6 1 C-6.66 0.67 -7.32 0.34 -8 0 C-4.67803635 -1.10732122 -3.31749961 -0.85064093 0 0 Z " fill="#1563A9" transform="translate(61,57)"/>
<path d="M0 0 C0.66 0.33 1.32 0.66 2 1 C2.61986755 9.21324503 2.61986755 9.21324503 0.375 12.0625 C-2.54695926 13.21590497 -4.88601543 13.21231713 -8 13 C-5 11 -5 11 -1 11 C-1.33 10.34 -1.66 9.68 -2 9 C-3.4540625 9.0309375 -3.4540625 9.0309375 -4.9375 9.0625 C-8 9 -8 9 -9 8 C-9.04092937 5.66702567 -9.04241723 3.33294775 -9 1 C-6.36 1.66 -3.72 2.32 -1 3 C-0.67 4.32 -0.34 5.64 0 7 C0 4.69 0 2.38 0 0 Z M-7 3 C-7.33 4.32 -7.66 5.64 -8 7 C-5.525 7.495 -5.525 7.495 -3 8 C-2.67 6.68 -2.34 5.36 -2 4 C-3.65 3.67 -5.3 3.34 -7 3 Z " fill="#7D95AC" transform="translate(102,126)"/>
<path d="M0 0 C0.66 0 1.32 0 2 0 C2.0825 0.78375 2.165 1.5675 2.25 2.375 C2.72806339 5.14749104 2.72806339 5.14749104 5.0625 6.3125 C5.701875 6.539375 6.34125 6.76625 7 7 C5.68 7.33 4.36 7.66 3 8 C3 11.3 3 14.6 3 18 C2.01 18 1.02 18 0 18 C0 12.06 0 6.12 0 0 Z " fill="#25466D" transform="translate(63,120)"/>
<path d="M0 0 C1.98 0 3.96 0 6 0 C6 4.29 6 8.58 6 13 C5.67 13 5.34 13 5 13 C5 9.37 5 5.74 5 2 C4.34 2 3.68 2 3 2 C3 2.99 3 3.98 3 5 C2.34 5 1.68 5 1 5 C1 9.29 1 13.58 1 18 C0.67 18 0.34 18 0 18 C-0.98357297 12.34445544 -1.37394574 6.74116691 -1 1 C-0.67 0.67 -0.34 0.34 0 0 Z " fill="#1963A8" transform="translate(119,53)"/>
<path d="M0 0 C6.6 0.33 13.2 0.66 20 1 C20 1.33 20 1.66 20 2 C13.565 2.495 13.565 2.495 7 3 C7.66 3.33 8.32 3.66 9 4 C9 4.66 9 5.32 9 6 C6.36 6 3.72 6 1 6 C1 5.34 1 4.68 1 4 C0.34 4 -0.32 4 -1 4 C-0.67 2.68 -0.34 1.36 0 0 Z " fill="#5380AB" transform="translate(31,94)"/>
<path d="M0 0 C0.99 0.66 1.98 1.32 3 2 C3.33 1.34 3.66 0.68 4 0 C4.99 0 5.98 0 7 0 C7 0.66 7 1.32 7 2 C6.34 2 5.68 2 5 2 C5 3.65 5 5.3 5 7 C1.7 7 -1.6 7 -5 7 C-4 5 -4 5 -1 4 C-0.26676204 1.98491642 -0.26676204 1.98491642 0 0 Z " fill="#195085" transform="translate(150,94)"/>
<path d="M0 0 C0.99 0.33 1.98 0.66 3 1 C3 2.32 3 3.64 3 5 C2.01 5 1.02 5 0 5 C-0.33 5.99 -0.66 6.98 -1 8 C-1.66 8 -2.32 8 -3 8 C-3.33 8.66 -3.66 9.32 -4 10 C-4.33 10.33 -4.66 10.66 -5 11 C-1.7 11 1.6 11 5 11 C5 11.33 5 11.66 5 12 C1.37 12 -2.26 12 -6 12 C-4.875 6.375 -4.875 6.375 -2.4375 3.1875 C-1.98246094 2.58292969 -1.52742187 1.97835937 -1.05859375 1.35546875 C-0.53458984 0.68451172 -0.53458984 0.68451172 0 0 Z " fill="#567C9D" transform="translate(150,90)"/>
<path d="M0 0 C0.99 0.33 1.98 0.66 3 1 C3 4.96 3 8.92 3 13 C1.68 13 0.36 13 -1 13 C-1.02696365 11.20841511 -1.04637917 9.41671527 -1.0625 7.625 C-1.07410156 6.62726563 -1.08570312 5.62953125 -1.09765625 4.6015625 C-1 2 -1 2 0 0 Z " fill="#50667D" transform="translate(72,126)"/>
<path d="M0 0 C4.67692308 1.47692308 4.67692308 1.47692308 6.3125 4.125 C6.539375 4.74375 6.76625 5.3625 7 6 C6.67 6.33 6.34 6.66 6 7 C5.95936168 8.66617115 5.957279 10.33388095 6 12 C4.62437146 10.71034824 3.29233607 9.37310707 2 8 C2 7.34 2 6.68 2 6 C1.34 6 0.68 6 0 6 C-1 3 -1 3 0 0 Z " fill="#1464AB" transform="translate(102,52)"/>
<path d="M0 0 C2.1385485 2.1385485 2.42655063 3.13275314 3 6 C5.31 6 7.62 6 10 6 C10 6.99 10 7.98 10 9 C5.545 9.495 5.545 9.495 1 10 C-0.87376865 6.2524627 -1.3214079 4.96403081 -1 1 C-0.67 0.67 -0.34 0.34 0 0 Z " fill="#314E70" transform="translate(91,128)"/>
<path d="M0 0 C2.33294775 -0.04241723 4.66702567 -0.04092937 7 0 C8 1 8 1 8.09765625 3.28515625 C8.08605469 4.20167969 8.07445313 5.11820313 8.0625 6.0625 C8.05347656 6.98160156 8.04445313 7.90070313 8.03515625 8.84765625 C8.02355469 9.55792969 8.01195313 10.26820313 8 11 C7.01 11 6.02 11 5 11 C4.67 8.36 4.34 5.72 4 3 C2.35 2.67 0.7 2.34 -1 2 C-0.67 1.34 -0.34 0.68 0 0 Z " fill="#2C4D6D" transform="translate(116,126)"/>
<path d="M0 0 C5.61 0 11.22 0 17 0 C17 0.33 17 0.66 17 1 C12.545 1.495 12.545 1.495 8 2 C7.67 3.65 7.34 5.3 7 7 C6.67 6.01 6.34 5.02 6 4 C4.02 4 2.04 4 0 4 C0 2.68 0 1.36 0 0 Z " fill="#4D6A84" transform="translate(24,119)"/>
<path d="M0 0 C0.33 0.66 0.66 1.32 1 2 C3.02463255 2.65213292 3.02463255 2.65213292 5 3 C5 5.31 5 7.62 5 10 C3.0625 10.5625 3.0625 10.5625 1 11 C0 10 0 10 -0.09765625 7.71484375 C-0.08605469 6.79832031 -0.07445312 5.88179688 -0.0625 4.9375 C-0.05347656 4.01839844 -0.04445312 3.09929687 -0.03515625 2.15234375 C-0.02355469 1.44207031 -0.01195312 0.73179688 0 0 Z " fill="#145996" transform="translate(55,86)"/>
<path d="M0 0 C3.3 0 6.6 0 10 0 C8.02 0.99 8.02 0.99 6 2 C6.020625 2.804375 6.04125 3.60875 6.0625 4.4375 C6 7 6 7 5 8 C3.33382885 8.04063832 1.66611905 8.042721 0 8 C0 5 0 5 2 3 C1.34 2.67 0.68 2.34 0 2 C0 1.34 0 0.68 0 0 Z " fill="#276DAE" transform="translate(92,51)"/>
<path d="M0 0 C1.64574566 -0.02688151 3.29161413 -0.04634123 4.9375 -0.0625 C5.85402344 -0.07410156 6.77054687 -0.08570312 7.71484375 -0.09765625 C10 0 10 0 11 1 C11.14115161 3.67058851 11.04247107 6.32432238 11 9 C10.01 9.33 9.02 9.66 8 10 C7.67 7.69 7.34 5.38 7 3 C4.69 2.34 2.38 1.68 0 1 C0 0.67 0 0.34 0 0 Z " fill="#214361" transform="translate(78,126)"/>
<path d="M0 0 C0.33 0.99 0.66 1.98 1 3 C0.67 3.66 0.34 4.32 0 5 C2.64 5 5.28 5 8 5 C8 5.33 8 5.66 8 6 C6.02 6.33 4.04 6.66 2 7 C2 7.66 2 8.32 2 9 C2.99 9.66 3.98 10.32 5 11 C3.02 11 1.04 11 -1 11 C-2.67357513 5.62694301 -2.67357513 5.62694301 -3 3 C-1.625 1 -1.625 1 0 0 Z " fill="#1F3F63" transform="translate(40,126)"/>
<path d="M0 0 C0.99 0.33 1.98 0.66 3 1 C2.34 2.98 1.68 4.96 1 7 C0.34 7 -0.32 7 -1 7 C-1 12.94 -1 18.88 -1 25 C-1.33 25 -1.66 25 -2 25 C-2.05800828 21.39590081 -2.09359869 17.79192149 -2.125 14.1875 C-2.14175781 13.16333984 -2.15851562 12.13917969 -2.17578125 11.08398438 C-2.18222656 10.10107422 -2.18867188 9.11816406 -2.1953125 8.10546875 C-2.20578613 7.19949951 -2.21625977 6.29353027 -2.22705078 5.36010742 C-2 3 -2 3 0 0 Z " fill="#4A789F" transform="translate(18,55)"/>
<path d="M0 0 C1.32 0 2.64 0 4 0 C4.29565824 6.20882296 2.75824913 10.48350174 0 16 C0 10.72 0 5.44 0 0 Z " fill="#1963A3" transform="translate(74,52)"/>
<path d="M0 0 C1.32 0.33 2.64 0.66 4 1 C5.35439668 3.70879335 5.06501451 6.00933268 5 9 C3.35 9 1.7 9 0 9 C0 6.03 0 3.06 0 0 Z " fill="#175A9F" transform="translate(134,71)"/>
<path d="M0 0 C0.66 0.33 1.32 0.66 2 1 C2 1.99 2 2.98 2 4 C4.64 4 7.28 4 10 4 C10.33 2.68 10.66 1.36 11 0 C11.66 0.33 12.32 0.66 13 1 C12.3828125 2.921875 12.3828125 2.921875 11 5 C8.1796875 5.828125 8.1796875 5.828125 4.875 6.25 C3.23144531 6.47429687 3.23144531 6.47429687 1.5546875 6.703125 C0.29011719 6.85007812 0.29011719 6.85007812 -1 7 C-0.67 4.69 -0.34 2.38 0 0 Z " fill="#7597B1" transform="translate(34,70)"/>
<path d="M0 0 C1.32 0 2.64 0 4 0 C3.52060632 4.71403788 3.03165952 8.66579301 1 13 C-0.32 12.67 -1.64 12.34 -3 12 C-3 9.03 -3 6.06 -3 3 C-2.67 3 -2.34 3 -2 3 C-2 5.31 -2 7.62 -2 10 C-1.34 9.67 -0.68 9.34 0 9 C0 6.03 0 3.06 0 0 Z " fill="#A1B6C7" transform="translate(88,126)"/>
<path d="M0 0 C-0.33 0.99 -0.66 1.98 -1 3 C-4.63 3 -8.26 3 -12 3 C-12.33 2.01 -12.66 1.02 -13 0 C-11.58456585 -0.19658808 -10.16755969 -0.38187546 -8.75 -0.5625 C-7.96109375 -0.66691406 -7.1721875 -0.77132812 -6.359375 -0.87890625 C-3.99467126 -1.00027349 -2.2488963 -0.69633257 0 0 Z " fill="#195792" transform="translate(55,83)"/>
<path d="M0 0 C3.63 0 7.26 0 11 0 C11 0.33 11 0.66 11 1 C8.36 1.33 5.72 1.66 3 2 C3.66 2.33 4.32 2.66 5 3 C5.6328125 5.06640625 5.6328125 5.06640625 6.125 7.5625 C6.29257813 8.38878906 6.46015625 9.21507813 6.6328125 10.06640625 C6.75398437 10.70449219 6.87515625 11.34257813 7 12 C4.40334142 9.49288137 1.91890173 7.07024277 0 4 C0 2.68 0 1.36 0 0 Z " fill="#6E95B4" transform="translate(144,65)"/>
<path d="M0 0 C2.62527189 -0.05382106 5.24944713 -0.09358313 7.875 -0.125 C8.62136719 -0.14175781 9.36773437 -0.15851562 10.13671875 -0.17578125 C12.09194461 -0.1933959 14.04742021 -0.10320189 16 0 C16.66 0.66 17.32 1.32 18 2 C12.06 2.33 6.12 2.66 0 3 C0 2.01 0 1.02 0 0 Z " fill="#206094" transform="translate(30,59)"/>
<path d="M0 0 C0 2 0 2 -1.5 3.625 C-1.995 4.07875 -2.49 4.5325 -3 5 C-1.35 5 0.3 5 2 5 C2 5.66 2 6.32 2 7 C0.68 7 -0.64 7 -2 7 C-2 8.32 -2 9.64 -2 11 C-2.66 11 -3.32 11 -4 11 C-4.33 7.7 -4.66 4.4 -5 1 C-3 0 -3 0 0 0 Z " fill="#1B4066" transform="translate(151,126)"/>
<path d="M0 0 C2.64 0.33 5.28 0.66 8 1 C7.67 1.66 7.34 2.32 7 3 C6.19071281 6.64179234 5.59930343 10.31856466 5 14 C4.67 14 4.34 14 4 14 C4 11.36 4 8.72 4 6 C2.68 5.34 1.36 4.68 0 4 C0.99 3.67 1.98 3.34 3 3 C2.01 2.67 1.02 2.34 0 2 C0 1.34 0 0.68 0 0 Z " fill="#89A0B6" transform="translate(66,124)"/>
<path d="M0 0 C1.98 0.66 3.96 1.32 6 2 C6 3.32 6 4.64 6 6 C3.125 6.625 3.125 6.625 0 7 C-0.66 6.34 -1.32 5.68 -2 5 C-1.46428571 1.46428571 -1.46428571 1.46428571 0 0 Z " fill="#326291" transform="translate(168,94)"/>
<path d="M0 0 C0.66 0.33 1.32 0.66 2 1 C2 1.66 2 2.32 2 3 C2.33 3.99 2.66 4.98 3 6 C4.32 5.67 5.64 5.34 7 5 C7 6.32 7 7.64 7 9 C1.25 9.125 1.25 9.125 -1 8 C-1.04241723 5.66705225 -1.04092937 3.33297433 -1 1 C-0.67 0.67 -0.34 0.34 0 0 Z " fill="#1B5D9B" transform="translate(133,52)"/>
<path d="M0 0 C3.3 0 6.6 0 10 0 C10.33 1.65 10.66 3.3 11 5 C10.34 5 9.68 5 9 5 C8.67 5.66 8.34 6.32 8 7 C8 5.35 8 3.7 8 2 C5.36 2.33 2.72 2.66 0 3 C0 2.01 0 1.02 0 0 Z " fill="#638BAC" transform="translate(169,65)"/>
<path d="M0 0 C3.65316671 1.24976756 4.78065836 1.67098753 7 5 C6.625 7.6875 6.625 7.6875 6 10 C4.68 10 3.36 10 2 10 C2.226875 9.278125 2.45375 8.55625 2.6875 7.8125 C3.08398299 4.24415308 2.04377787 2.86128901 0 0 Z " fill="#5380A4" transform="translate(151,77)"/>
<path d="M0 0 C0 1.98 0 3.96 0 6 C-0.33 5.01 -0.66 4.02 -1 3 C-5.47883696 3.44703986 -5.47883696 3.44703986 -9 6 C-9 4.35 -9 2.7 -9 1 C-6.04335481 -0.4783226 -3.25770263 -0.06032783 0 0 Z " fill="#608BB0" transform="translate(126,50)"/>
<path d="M0 0 C2.97 0 5.94 0 9 0 C9 1.32 9 2.64 9 4 C2.25 4.125 2.25 4.125 0 3 C0 2.01 0 1.02 0 0 Z " fill="#576E83" transform="translate(52,135)"/>
<path d="M0 0 C0.66 0.33 1.32 0.66 2 1 C2 2.65 2 4.3 2 6 C-1.3 5.67 -4.6 5.34 -8 5 C-8 4.34 -8 3.68 -8 3 C-5.69 3 -3.38 3 -1 3 C-0.67 2.01 -0.34 1.02 0 0 Z " fill="#2E4D68" transform="translate(169,132)"/>
<path d="M0 0 C0.99 0.33 1.98 0.66 3 1 C3 1.99 3 2.98 3 4 C4.32 4.33 5.64 4.66 7 5 C7 5.33 7 5.66 7 6 C4.69 6 2.38 6 0 6 C-0.38218767 4.34385343 -0.71395102 2.67542976 -1 1 C-0.67 0.67 -0.34 0.34 0 0 Z " fill="#4B6983" transform="translate(160,126)"/>
<path d="M0 0 C0.93423645 3.01031744 1.04449911 3.86650268 0 7 C-2.66666667 6.33333333 -5.33333333 5.66666667 -8 5 C-7.01 5 -6.02 5 -5 5 C-5 4.34 -5 3.68 -5 3 C-4.34 3 -3.68 3 -3 3 C-3 2.34 -3 1.68 -3 1 C-2.01 0.67 -1.02 0.34 0 0 Z " fill="#36699D" transform="translate(55,77)"/>
<path d="M0 0 C0.66 0 1.32 0 2 0 C2.8125 2.0625 2.8125 2.0625 3 5 C1.62353742 7.57223122 -0.04314267 9.83748569 -2 12 C-2.33 12 -2.66 12 -3 12 C-3.1875 9.6875 -3.1875 9.6875 -3 7 C-2.0206121 5.97980427 -1.02104551 4.97850195 0 4 C0 2.68 0 1.36 0 0 Z " fill="#487BA8" transform="translate(172,70)"/>
<path d="M0 0 C-1.98 0.99 -1.98 0.99 -4 2 C-3.34 2.33 -2.68 2.66 -2 3 C-2.33 3.66 -2.66 4.32 -3 5 C-4.9375 4.625 -4.9375 4.625 -7 4 C-7.33 3.34 -7.66 2.68 -8 2 C-8.66 1.67 -9.32 1.34 -10 1 C-6.1496895 -1.56687367 -4.41430237 -0.83288724 0 0 Z " fill="#7C93A8" transform="translate(48,125)"/>
<path d="M0 0 C0.66 1.32 1.32 2.64 2 4 C1.01 4.495 1.01 4.495 0 5 C-0.65213292 7.02463255 -0.65213292 7.02463255 -1 9 C-3 6 -3 6 -2.75 3.375 C-2.5025 2.59125 -2.255 1.8075 -2 1 C-1.34 0.67 -0.68 0.34 0 0 Z M-3 9 C-2.01 9.33 -1.02 9.66 0 10 C-0.33 10.66 -0.66 11.32 -1 12 C-1.66 11.01 -2.32 10.02 -3 9 Z " fill="#2E6094" transform="translate(154,86)"/>
<path d="M0 0 C2.44031962 3.66047942 2.73696072 6.74105256 2 11 C0 13.5 0 13.5 -2 15 C-2 13.02 -2 11.04 -2 9 C-1.34 9 -0.68 9 0 9 C0 6.03 0 3.06 0 0 Z " fill="#7097BB" transform="translate(109,58)"/>
<path d="M0 0 C0.66 0.33 1.32 0.66 2 1 C2.4140625 3.06640625 2.4140625 3.06640625 2.625 5.5625 C2.69976562 6.38878906 2.77453125 7.21507813 2.8515625 8.06640625 C2.92503906 9.02353516 2.92503906 9.02353516 3 10 C1.68 10.33 0.36 10.66 -1 11 C-1.08927756 7.78600767 -0.8534403 5.0937211 0 2 C0 1.34 0 0.68 0 0 Z " fill="#1E5D97" transform="translate(107,57)"/>
<path d="M0 0 C1.46015291 0.28241641 2.91809793 0.57626614 4.375 0.875 C5.18710938 1.03742188 5.99921875 1.19984375 6.8359375 1.3671875 C9 2 9 2 11 4 C3.51234156 4.3682455 3.51234156 4.3682455 1 2.5625 C0 1 0 1 0 0 Z " fill="#8297AB" transform="translate(158,135)"/>
<path d="M0 0 C2.97 0 5.94 0 9 0 C9.33 0.66 9.66 1.32 10 2 C9.01 3.485 9.01 3.485 8 5 C7.67 4.01 7.34 3.02 7 2 C5.02 2 3.04 2 1 2 C0.67 1.34 0.34 0.68 0 0 Z " fill="#184360" transform="translate(128,136)"/>
<path d="M0 0 C1.32 0.33 2.64 0.66 4 1 C2.70700306 3.88437779 1.34058637 5.87219421 -1 8 C-1.66 7.67 -2.32 7.34 -3 7 C-2.67 6.01 -2.34 5.02 -2 4 C-1.34 3.67 -0.68 3.34 0 3 C0 2.01 0 1.02 0 0 Z " fill="#4E759B" transform="translate(107,92)"/>
<path d="M0 0 C0.66 0.33 1.32 0.66 2 1 C1.34 2.32 0.68 3.64 0 5 C-4.29 5 -8.58 5 -13 5 C-12.67 4.34 -12.34 3.68 -12 3 C-9.27734375 2.5859375 -9.27734375 2.5859375 -5.9375 2.375 C-4.83277344 2.30023438 -3.72804688 2.22546875 -2.58984375 2.1484375 C-1.73519531 2.09945312 -0.88054687 2.05046875 0 2 C0 1.34 0 0.68 0 0 Z " fill="#19507D" transform="translate(97,89)"/>
<path d="M0 0 C0.33 0 0.66 0 1 0 C1 2.64 1 5.28 1 8 C-0.32 7.67 -1.64 7.34 -3 7 C-3 5.68 -3 4.36 -3 3 C-2.01 3 -1.02 3 0 3 C0 2.01 0 1.02 0 0 Z " fill="#1E5387" transform="translate(110,85)"/>
<path d="M0 0 C1.65 0.33 3.3 0.66 5 1 C4.67 1.99 4.34 2.98 4 4 C2.35 3.67 0.7 3.34 -1 3 C-0.67 2.01 -0.34 1.02 0 0 Z " fill="#728593" transform="translate(140,119)"/>
<path d="M0 0 C2.33294775 -0.04241723 4.66702567 -0.04092937 7 0 C8 1 8 1 8.0625 4.0625 C8.041875 5.031875 8.02125 6.00125 8 7 C7.34 7 6.68 7 6 7 C5.67 5.35 5.34 3.7 5 2 C3.35 1.67 1.7 1.34 0 1 C0 0.67 0 0.34 0 0 Z " fill="#5786AF" transform="translate(135,52)"/>
<path d="M0 0 C1.65 0 3.3 0 5 0 C5.33 1.65 5.66 3.3 6 5 C2.83884224 3.63016497 2.0072908 3.0109362 0 0 Z " fill="#3C597C" transform="translate(152,126)"/>
<path d="M0 0 C2.97 0.495 2.97 0.495 6 1 C5.67 2.32 5.34 3.64 5 5 C3.35 4.67 1.7 4.34 0 4 C0 2.68 0 1.36 0 0 Z " fill="#316CA9" transform="translate(132,66)"/>
<path d="M0 0 C0.99 0.33 1.98 0.66 3 1 C2.34 2.98 1.68 4.96 1 7 C0.34 7 -0.32 7 -1 7 C-1.04254356 5.00045254 -1.04080783 2.99958364 -1 1 C-0.67 0.67 -0.34 0.34 0 0 Z " fill="#376BA0" transform="translate(18,55)"/>
<path d="M0 0 C4.67692308 1.47692308 4.67692308 1.47692308 6.3125 4.125 C6.539375 4.74375 6.76625 5.3625 7 6 C4.0625 5.25 4.0625 5.25 1 4 C0.125 1.875 0.125 1.875 0 0 Z " fill="#6691B3" transform="translate(102,52)"/>
<path d="M0 0 C2.31 0 4.62 0 7 0 C6.67 0.99 6.34 1.98 6 3 C3.69 3 1.38 3 -1 3 C-0.67 2.01 -0.34 1.02 0 0 Z " fill="#9FB2C6" transform="translate(42,132)"/>
<path d="M0 0 C-1.375 1.5 -1.375 1.5 -3 3 C-3.66 3 -4.32 3 -5 3 C-5 2.34 -5 1.68 -5 1 C-6.65 1.33 -8.3 1.66 -10 2 C-7.85732894 -2.28534211 -3.95706306 -0.79141261 0 0 Z " fill="#7289A1" transform="translate(156,125)"/>
<path d="M0 0 C0 0.99 0 1.98 0 3 C-1.98 3 -3.96 3 -6 3 C-6.33 2.34 -6.66 1.68 -7 1 C-4.53721199 -0.231394 -2.7204945 -0.07159196 0 0 Z " fill="#2A4A65" transform="translate(61,125)"/>
<path d="M0 0 C0.66 0.33 1.32 0.66 2 1 C2 2.65 2 4.3 2 6 C1.01 6.33 0.02 6.66 -1 7 C-1.04254356 5.00045254 -1.04080783 2.99958364 -1 1 C-0.67 0.67 -0.34 0.34 0 0 Z " fill="#234264" transform="translate(52,127)"/>
<path d="M0 0 C1.65 0.99 3.3 1.98 5 3 C4.67 3.66 4.34 4.32 4 5 C3.34 4.67 2.68 4.34 2 4 C1.67 4.66 1.34 5.32 1 6 C0 5 0 5 -0.0625 2.4375 C-0.041875 1.633125 -0.02125 0.82875 0 0 Z " fill="#4B7799" transform="translate(173,91)"/>
<path d="" fill="#FFFFFF" transform="translate(0,0)"/>
<path d="" fill="#FFFFFF" transform="translate(0,0)"/>
<path d="" fill="#FFFFFF" transform="translate(0,0)"/>
<path d="M0 0 C2 1 2 1 2 1 Z " fill="#EFFFFF" transform="translate(36,124)"/>
<path d="" fill="#FFFFFF" transform="translate(0,0)"/>
<path d="" fill="#FFE3FF" transform="translate(0,0)"/>
<path d="" fill="#FFFFFF" transform="translate(0,0)"/>
<path d="" fill="#FFFFFF" transform="translate(0,0)"/>
<path d="" fill="#E3FFE3" transform="translate(0,0)"/>
<path d="" fill="#FFFFFF" transform="translate(0,0)"/>
<path d="" fill="#FFFFFF" transform="translate(0,0)"/>
<path d="" fill="#FFFFFF" transform="translate(0,0)"/>
<path d="" fill="#FFFFFF" transform="translate(0,0)"/>
<path d="" fill="#E3FFFF" transform="translate(0,0)"/>
<path d="" fill="#FFFFFF" transform="translate(0,0)"/>
<path d="" fill="#FFFFFF" transform="translate(0,0)"/>
<path d="" fill="#FFFFFF" transform="translate(0,0)"/>
<path d="" fill="#FFFFFF" transform="translate(0,0)"/>
<path d="" fill="#FFFFFF" transform="translate(0,0)"/>
<path d="" fill="#FFFFFF" transform="translate(0,0)"/>
<path d="" fill="#FFFFFF" transform="translate(0,0)"/>
<path d="" fill="#FFFFFF" transform="translate(0,0)"/>
<path d="" fill="#FFFFFF" transform="translate(0,0)"/>
<path d="" fill="#FFFFFF" transform="translate(0,0)"/>
<path d="" fill="#FFFFFF" transform="translate(0,0)"/>
<path d="" fill="#FFFFFF" transform="translate(0,0)"/>
<path d="" fill="#FFFFFF" transform="translate(0,0)"/>
<path d="" fill="#FFFFFF" transform="translate(0,0)"/>
<path d="" fill="#E6E6E6" transform="translate(0,0)"/>
<path d="" fill="#FFFFFF" transform="translate(0,0)"/>
<path d="" fill="#FFFFFF" transform="translate(0,0)"/>
<path d="" fill="#FFFFFF" transform="translate(0,0)"/>
<path d="" fill="#FFFFFF" transform="translate(0,0)"/>
<path d="" fill="#FFFFFF" transform="translate(0,0)"/>
<path d="" fill="#FFFFFF" transform="translate(0,0)"/>
<path d="" fill="#FFFFFF" transform="translate(0,0)"/>
</svg>
